<svg id="svg" version="1.1" xmlns="http://www.w3.org/2000/svg" xmlns:xlink="http://www.w3.org/1999/xlink" width="400" height="400" viewBox="0, 0, 400,400"><g id="svgg"><path id="path0" d="M138.748 15.292 C 138.812 15.544,139.265 17.475,139.754 19.583 C 140.244 21.692,140.805 24.084,141.001 24.900 C 141.197 25.716,141.366 26.541,141.375 26.734 C 141.385 26.926,141.457 27.169,141.535 27.274 C 141.614 27.379,141.662 27.529,141.641 27.607 C 141.566 27.898,141.814 29.078,143.003 34.083 C 143.090 34.450,143.316 35.425,143.503 36.250 C 143.991 38.392,144.254 39.517,145.079 43.000 C 145.480 44.696,146.081 47.283,146.413 48.750 C 147.141 51.961,146.727 51.525,150.668 53.226 L 153.917 54.629 154.481 55.773 C 154.791 56.402,156.862 60.929,159.083 65.833 C 161.303 70.737,164.378 77.487,165.914 80.833 C 171.890 93.846,179.983 111.574,182.500 117.167 C 183.304 118.954,186.193 125.292,188.920 131.250 C 198.429 152.032,203.790 163.772,205.168 166.833 C 205.932 168.529,206.616 169.984,206.688 170.067 C 206.807 170.206,209.915 167.556,210.213 167.062 C 210.284 166.944,210.190 166.188,210.005 165.382 C 209.614 163.688,208.364 157.935,207.077 151.917 C 207.002 151.564,206.428 148.932,206.150 147.667 C 206.060 147.254,205.649 145.379,205.236 143.500 C 203.873 137.287,200.966 123.935,200.736 122.833 C 200.612 122.237,200.401 121.263,200.266 120.667 C 200.132 120.071,198.926 114.558,197.586 108.417 C 196.246 102.275,195.009 96.612,194.836 95.833 C 194.664 95.054,193.839 91.267,193.003 87.417 C 191.295 79.546,190.774 77.161,189.253 70.250 C 188.155 65.254,188.006 64.539,187.925 63.833 C 187.898 63.604,187.858 63.379,187.835 63.333 C 187.812 63.288,187.800 63.201,187.808 63.140 C 187.817 63.080,187.720 62.630,187.593 62.140 C 187.466 61.651,187.325 61.025,187.279 60.750 C 187.233 60.475,186.957 59.125,186.666 57.750 C 185.907 54.158,185.723 53.303,185.267 51.250 C 185.043 50.242,184.774 49.028,184.668 48.552 C 184.463 47.626,184.625 47.790,182.000 45.858 C 181.404 45.420,177.279 42.446,172.833 39.251 C 165.592 34.046,164.261 33.078,163.552 32.500 C 163.336 32.324,162.164 31.490,161.500 31.040 C 161.271 30.884,160.738 30.493,160.315 30.170 C 159.892 29.847,159.379 29.471,159.174 29.333 C 158.970 29.196,158.603 28.915,158.359 28.709 C 158.116 28.502,157.872 28.334,157.818 28.334 C 157.763 28.333,157.501 28.146,157.234 27.917 C 156.968 27.688,156.705 27.500,156.651 27.500 C 156.596 27.500,156.393 27.369,156.200 27.208 C 156.008 27.048,155.357 26.579,154.756 26.167 C 154.154 25.754,153.409 25.229,153.100 25.000 C 152.791 24.771,152.398 24.493,152.227 24.384 C 151.545 23.945,142.145 17.211,140.610 16.061 C 138.797 14.703,138.574 14.611,138.748 15.292 M343.000 172.518 C 333.959 175.399,325.381 178.109,305.250 184.445 C 301.308 185.685,291.483 188.797,283.417 191.359 C 275.350 193.922,261.737 198.230,253.167 200.934 C 244.596 203.638,237.459 205.903,237.308 205.967 C 237.065 206.070,241.127 209.887,243.531 211.815 L 244.028 212.212 247.222 211.938 C 250.813 211.629,252.063 211.529,253.750 211.416 C 254.392 211.373,255.254 211.302,255.667 211.258 C 256.079 211.215,257.017 211.137,257.750 211.086 C 258.483 211.034,259.646 210.923,260.333 210.838 C 261.021 210.753,262.221 210.639,263.000 210.584 C 263.779 210.529,264.604 210.454,264.833 210.416 C 265.063 210.378,265.887 210.303,266.667 210.250 C 267.446 210.196,268.346 210.122,268.667 210.086 C 268.987 210.049,269.775 209.975,270.417 209.921 C 271.058 209.866,271.958 209.785,272.417 209.740 C 273.809 209.604,281.902 208.856,284.917 208.585 C 286.475 208.445,288.125 208.292,288.583 208.246 C 289.376 208.165,292.755 207.853,309.333 206.326 C 313.321 205.958,319.396 205.396,322.833 205.075 C 326.271 204.755,331.521 204.268,334.500 203.994 C 337.479 203.720,345.542 202.973,352.417 202.334 C 359.292 201.696,370.617 200.648,377.583 200.006 C 392.302 198.650,393.528 198.527,393.655 198.400 C 393.792 198.263,392.306 197.109,389.170 194.917 C 387.181 193.526,383.661 190.997,383.083 190.544 C 382.363 189.978,381.135 189.167,381.000 189.167 C 380.908 189.167,380.833 189.108,380.833 189.036 C 380.833 188.964,380.590 188.764,380.292 188.592 C 379.712 188.257,375.872 185.545,375.568 185.256 C 375.328 185.029,374.482 184.387,373.590 183.757 C 373.196 183.478,372.432 182.932,371.895 182.543 C 371.357 182.155,370.000 181.180,368.880 180.377 C 364.757 177.421,356.211 171.253,354.928 170.308 C 353.263 169.081,354.518 168.848,343.000 172.518 M149.167 186.009 C 139.465 186.969,125.419 188.303,123.917 188.408 C 123.183 188.459,122.096 188.534,121.500 188.575 C 120.904 188.616,120.117 188.687,119.750 188.734 C 119.383 188.780,118.521 188.863,117.833 188.917 C 117.146 188.972,116.353 189.045,116.070 189.080 C 115.788 189.115,114.626 189.227,113.487 189.328 C 110.694 189.577,109.855 189.658,109.167 189.745 C 108.846 189.786,107.983 189.862,107.250 189.914 C 106.517 189.966,105.654 190.042,105.333 190.082 C 105.013 190.123,104.263 190.199,103.667 190.251 C 103.071 190.304,101.871 190.419,101.000 190.507 C 100.129 190.595,97.804 190.820,95.833 191.007 C 93.862 191.193,90.712 191.493,88.833 191.674 C 86.954 191.854,84.217 192.116,82.750 192.255 C 78.728 192.636,75.006 192.996,74.167 193.086 C 73.754 193.129,68.692 193.615,62.917 194.166 C 57.142 194.716,49.717 195.427,46.417 195.745 C 35.787 196.769,24.796 197.822,15.917 198.668 C 5.391 199.670,5.635 199.640,5.699 199.925 C 5.742 200.115,8.012 201.780,17.540 208.611 C 18.158 209.054,19.245 209.846,19.957 210.371 C 20.668 210.896,21.315 211.327,21.393 211.329 C 21.555 211.334,23.738 212.897,24.249 213.376 C 24.433 213.547,24.958 213.945,25.417 214.258 C 25.875 214.572,27.574 215.786,29.193 216.956 C 37.608 223.040,45.199 228.504,46.195 229.193 L 47.316 229.970 51.116 228.753 C 53.207 228.084,60.542 225.735,67.417 223.533 C 74.292 221.331,83.742 218.316,88.417 216.833 C 93.092 215.351,106.367 211.101,117.917 207.390 C 144.971 198.698,149.844 197.137,157.917 194.581 C 161.583 193.420,164.606 192.448,164.633 192.421 C 164.861 192.199,156.588 185.336,156.115 185.354 C 155.823 185.365,152.696 185.660,149.167 186.009 M192.258 229.251 C 189.475 231.757,189.259 232.032,189.487 232.787 C 189.564 233.042,189.745 233.813,189.890 234.500 C 190.035 235.188,190.653 238.000,191.262 240.750 C 191.872 243.500,192.469 246.237,192.589 246.833 C 192.842 248.087,193.406 250.638,193.751 252.083 C 193.882 252.633,195.007 257.696,196.252 263.333 C 197.496 268.971,198.891 275.271,199.352 277.333 C 199.813 279.396,201.303 286.108,202.662 292.250 C 206.462 309.417,210.073 325.694,210.981 329.750 C 211.859 333.672,212.000 334.348,212.075 335.000 C 212.102 335.229,212.139 335.417,212.159 335.417 C 212.178 335.417,212.218 335.604,212.249 335.833 C 212.308 336.286,212.457 336.917,212.504 336.917 C 212.520 336.917,212.552 337.104,212.576 337.333 C 212.611 337.676,212.932 339.254,213.101 339.917 C 213.125 340.008,213.375 341.171,213.656 342.500 C 215.402 350.732,215.505 351.108,216.153 351.580 C 216.481 351.819,221.197 355.218,226.633 359.133 C 232.068 363.047,236.793 366.458,237.133 366.713 C 237.857 367.255,239.599 368.510,239.961 368.750 C 240.099 368.842,240.401 369.085,240.631 369.292 C 240.861 369.498,241.107 369.667,241.179 369.667 C 241.251 369.667,241.409 369.763,241.530 369.881 C 241.651 369.999,242.125 370.354,242.583 370.671 C 243.042 370.988,243.642 371.418,243.917 371.626 C 244.654 372.185,244.677 372.202,245.606 372.877 C 246.076 373.220,246.516 373.500,246.584 373.500 C 246.651 373.500,246.950 373.706,247.247 373.958 C 247.545 374.210,248.396 374.829,249.138 375.333 C 249.880 375.837,252.411 377.637,254.762 379.333 C 260.532 383.497,260.844 383.712,260.953 383.603 C 261.066 383.489,260.975 383.041,259.670 377.279 C 259.113 374.821,258.616 372.461,258.566 372.035 C 258.516 371.609,258.431 371.191,258.378 371.105 C 258.325 371.019,258.263 370.791,258.239 370.599 C 258.188 370.174,258.109 369.781,257.756 368.167 C 257.605 367.479,257.445 366.729,257.401 366.500 C 257.356 366.271,257.207 365.596,257.069 365.000 C 256.736 363.559,256.554 362.753,256.333 361.750 C 256.233 361.292,255.964 360.092,255.737 359.083 C 255.510 358.075,254.803 354.887,254.166 352.000 C 252.766 345.644,252.995 346.122,250.925 345.240 L 249.266 344.533 248.202 342.225 C 247.617 340.955,244.678 334.554,241.672 328.000 C 238.666 321.446,233.451 310.121,230.084 302.833 C 226.718 295.546,222.509 286.415,220.731 282.542 C 218.954 278.669,216.045 272.331,214.268 268.458 C 212.490 264.585,207.625 254.029,203.457 245.000 C 199.288 235.971,195.709 228.190,195.502 227.708 C 195.031 226.612,195.363 226.454,192.258 229.251 " stroke="none" fill="#0493db" fill-rule="evenodd"></path><path id="path1" d="M147.508 52.542 C 147.589 52.840,150.731 66.396,154.489 82.667 C 160.354 108.059,165.316 129.503,165.568 130.551 C 165.630 130.808,165.599 130.821,165.362 130.642 C 165.209 130.527,165.350 130.729,165.677 131.091 C 166.419 131.915,166.986 132.603,175.769 143.333 C 181.891 150.812,188.375 158.715,199.222 171.917 C 200.502 173.475,201.619 174.750,201.703 174.750 C 201.787 174.750,202.933 173.787,204.249 172.610 L 206.642 170.470 206.341 169.777 C 206.175 169.395,204.635 166.008,202.917 162.250 C 201.200 158.492,196.997 149.267,193.578 141.750 C 190.158 134.233,185.624 124.296,183.500 119.667 C 181.377 115.037,176.655 104.688,173.007 96.667 C 169.358 88.646,163.953 76.796,160.994 70.333 C 158.036 63.871,155.226 57.730,154.750 56.688 L 153.885 54.793 150.679 53.396 C 148.916 52.628,147.448 52.000,147.417 52.000 C 147.386 52.000,147.427 52.244,147.508 52.542 M61.333 63.181 C 61.333 63.330,64.483 67.214,64.835 67.500 C 64.932 67.579,65.449 68.175,68.742 72.000 C 69.491 72.871,70.578 74.183,71.156 74.917 C 71.735 75.650,72.680 76.813,73.258 77.500 C 73.835 78.188,74.967 79.537,75.773 80.500 C 76.580 81.462,77.281 82.287,77.333 82.333 C 77.385 82.379,77.908 83.003,78.495 83.719 C 79.934 85.474,78.976 85.333,89.447 85.338 L 98.750 85.344 115.343 100.297 C 124.470 108.521,134.599 117.650,137.853 120.583 C 146.962 128.794,148.710 130.346,148.776 130.280 C 148.809 130.247,146.990 126.326,144.733 121.568 C 132.406 95.577,127.160 84.451,127.209 84.402 C 127.239 84.372,128.677 86.071,130.404 88.177 C 132.131 90.284,133.628 92.057,133.730 92.119 C 133.833 92.180,133.575 91.822,133.158 91.323 C 132.741 90.825,131.206 88.954,129.749 87.167 C 128.291 85.379,127.055 83.879,127.002 83.833 C 126.950 83.787,126.619 83.344,126.267 82.847 C 125.916 82.351,124.723 80.851,123.618 79.514 C 122.513 78.177,121.153 76.526,120.596 75.844 C 116.602 70.956,116.977 71.288,115.223 71.098 C 114.688 71.041,114.028 70.962,113.757 70.924 C 113.486 70.886,112.886 70.806,112.424 70.746 C 111.110 70.575,75.617 65.190,65.261 63.590 C 60.806 62.902,61.333 62.957,61.333 63.181 M134.500 93.167 C 134.884 93.625,135.235 94.000,135.281 94.000 C 135.327 94.000,135.050 93.625,134.667 93.167 C 134.283 92.708,133.931 92.333,133.886 92.333 C 133.840 92.333,134.116 92.708,134.500 93.167 M143.686 104.333 C 151.496 113.888,158.871 122.833,158.940 122.833 C 158.989 122.833,158.547 122.252,157.959 121.542 C 157.371 120.831,153.943 116.650,150.342 112.250 C 146.741 107.850,143.602 104.063,143.366 103.833 C 143.130 103.604,143.274 103.829,143.686 104.333 M325.893 112.109 C 320.956 116.395,315.152 121.443,312.996 123.326 C 310.840 125.209,301.186 133.609,291.544 141.992 C 281.901 150.375,274.036 157.258,274.065 157.287 C 274.094 157.317,285.093 153.666,298.507 149.174 C 311.921 144.682,322.923 141.034,322.955 141.066 C 323.071 141.182,325.572 139.715,329.300 137.345 C 331.381 136.022,335.558 133.367,338.583 131.443 C 341.608 129.520,345.171 127.259,346.500 126.418 C 347.829 125.577,350.004 124.177,351.333 123.306 C 354.616 121.154,360.500 117.419,361.281 116.991 C 361.630 116.799,362.254 116.425,362.667 116.160 C 363.079 115.895,363.631 115.558,363.892 115.410 C 364.153 115.262,365.053 114.700,365.892 114.162 C 366.731 113.624,368.204 112.681,369.167 112.066 C 371.945 110.292,371.998 110.256,371.999 110.133 C 372.000 109.982,372.807 110.114,359.417 108.086 C 339.042 105.001,335.758 104.500,335.309 104.406 C 334.918 104.325,333.852 105.197,325.893 112.109 M159.667 123.833 C 160.050 124.292,160.402 124.667,160.448 124.667 C 160.494 124.667,160.217 124.292,159.833 123.833 C 159.450 123.375,159.098 123.000,159.052 123.000 C 159.006 123.000,159.283 123.375,159.667 123.833 M161.167 125.667 C 161.550 126.125,161.902 126.500,161.948 126.500 C 161.994 126.500,161.717 126.125,161.333 125.667 C 160.950 125.208,160.598 124.833,160.552 124.833 C 160.506 124.833,160.783 125.208,161.167 125.667 M163.500 128.500 C 163.884 128.958,164.235 129.333,164.281 129.333 C 164.327 129.333,164.050 128.958,163.667 128.500 C 163.283 128.042,162.931 127.667,162.886 127.667 C 162.840 127.667,163.116 128.042,163.500 128.500 M318.542 143.853 C 317.974 144.216,317.790 144.461,318.292 144.185 C 318.674 143.975,319.273 143.511,319.167 143.508 C 319.121 143.507,318.840 143.662,318.542 143.853 M316.708 145.019 C 316.140 145.383,315.956 145.627,316.458 145.351 C 316.841 145.141,317.440 144.678,317.333 144.675 C 317.287 144.673,317.006 144.828,316.708 145.019 M314.875 146.186 C 314.307 146.550,314.123 146.794,314.625 146.518 C 315.007 146.308,315.606 145.845,315.500 145.841 C 315.454 145.840,315.173 145.995,314.875 146.186 M313.414 147.107 C 312.563 147.671,312.264 147.968,312.928 147.589 C 313.512 147.256,314.292 146.676,314.164 146.670 C 314.116 146.668,313.779 146.865,313.414 147.107 M304.750 152.602 C 300.625 155.221,297.175 157.443,297.083 157.540 C 296.807 157.831,311.876 148.332,312.242 147.984 C 312.632 147.613,311.815 148.116,304.750 152.602 M295.417 158.521 C 294.211 159.288,293.164 160.085,294.167 159.473 C 296.223 158.218,297.048 157.651,296.792 157.670 C 296.769 157.671,296.150 158.054,295.417 158.521 M292.542 160.353 C 291.974 160.716,291.790 160.961,292.292 160.685 C 292.674 160.475,293.273 160.011,293.167 160.008 C 293.121 160.007,292.840 160.162,292.542 160.353 M290.708 161.519 C 290.140 161.883,289.956 162.127,290.458 161.851 C 290.841 161.641,291.440 161.178,291.333 161.175 C 291.287 161.173,291.006 161.328,290.708 161.519 M346.250 166.271 C 344.256 166.507,289.617 172.519,271.708 174.472 C 271.044 174.545,270.500 174.587,270.500 174.566 C 270.500 174.545,271.287 174.026,272.250 173.413 C 273.212 172.799,274.000 172.265,274.000 172.226 C 274.000 172.125,273.635 172.343,271.809 173.535 C 269.159 175.263,234.280 197.459,231.125 199.424 C 230.096 200.065,229.883 199.748,233.542 203.024 C 235.306 204.605,236.844 206.014,236.959 206.157 C 237.148 206.392,237.159 206.392,237.078 206.157 C 237.006 205.948,237.615 205.699,240.203 204.880 C 241.970 204.321,248.629 202.213,255.000 200.196 C 261.371 198.179,271.758 194.903,278.083 192.916 C 284.408 190.930,293.783 187.968,298.917 186.334 C 310.327 182.702,332.970 175.529,341.000 173.002 C 344.254 171.977,348.292 170.707,349.973 170.177 L 353.030 169.215 350.890 167.665 C 348.391 165.856,348.776 165.971,346.250 166.271 M276.542 170.519 C 275.974 170.883,275.790 171.127,276.292 170.851 C 276.674 170.641,277.273 170.178,277.167 170.175 C 277.121 170.173,276.840 170.328,276.542 170.519 M275.080 171.440 C 274.230 172.004,273.930 172.301,274.594 171.923 C 275.179 171.589,275.959 171.009,275.830 171.004 C 275.783 171.002,275.445 171.198,275.080 171.440 M161.500 193.572 C 157.892 194.740,132.941 202.723,114.417 208.637 C 107.817 210.744,95.254 214.770,86.500 217.583 C 69.592 223.017,52.589 228.449,49.625 229.364 C 47.452 230.034,47.452 229.870,49.625 231.437 L 51.417 232.729 65.417 231.195 C 73.117 230.351,87.254 228.801,96.833 227.751 C 106.412 226.701,117.052 225.535,120.476 225.160 C 123.900 224.786,126.738 224.516,126.783 224.561 C 126.828 224.605,126.370 224.954,125.765 225.336 C 125.161 225.718,124.667 226.065,124.667 226.108 C 124.667 226.218,124.797 226.137,127.417 224.403 C 129.573 222.976,149.456 210.235,163.882 201.036 C 167.255 198.886,169.992 197.071,169.965 197.003 C 169.902 196.841,164.942 192.502,164.833 192.513 C 164.787 192.517,163.287 192.994,161.500 193.572 M196.980 224.950 C 196.391 225.482,195.644 226.142,195.322 226.417 C 194.999 226.692,194.832 226.852,194.950 226.772 C 195.107 226.666,195.334 226.996,195.808 228.022 C 199.137 235.234,205.461 248.998,207.168 252.750 C 208.337 255.317,212.085 263.454,215.498 270.833 C 221.489 283.785,225.404 292.289,229.000 300.167 C 229.942 302.229,232.701 308.229,235.132 313.500 C 237.563 318.771,241.744 327.846,244.422 333.667 L 249.293 344.250 250.521 344.854 C 252.222 345.690,252.558 345.784,252.442 345.391 C 252.392 345.222,249.718 333.233,246.500 318.750 C 243.282 304.267,239.561 287.542,238.231 281.583 C 236.901 275.625,235.750 270.466,235.672 270.118 C 235.545 269.545,235.558 269.506,235.808 269.700 C 235.959 269.818,235.782 269.578,235.413 269.166 C 235.045 268.754,231.710 264.742,228.004 260.250 C 224.297 255.758,218.752 249.046,215.680 245.333 C 212.609 241.621,207.439 235.358,204.191 231.417 C 200.943 227.475,198.233 224.190,198.169 224.117 C 198.104 224.044,197.569 224.419,196.980 224.950 M122.583 227.353 C 121.001 228.373,119.646 229.368,120.833 228.639 C 123.079 227.259,124.704 226.152,124.458 226.170 C 124.435 226.171,123.592 226.704,122.583 227.353 M104.875 238.686 C 104.307 239.050,104.123 239.294,104.625 239.018 C 105.007 238.808,105.606 238.345,105.500 238.341 C 105.454 238.340,105.173 238.495,104.875 238.686 M102.914 239.940 C 102.063 240.504,101.764 240.801,102.428 240.423 C 103.012 240.089,103.792 239.509,103.664 239.504 C 103.616 239.502,103.279 239.698,102.914 239.940 M100.580 241.440 C 99.730 242.004,99.430 242.301,100.094 241.923 C 100.679 241.589,101.459 241.009,101.330 241.004 C 101.283 241.002,100.945 241.198,100.580 241.440 M90.667 247.768 C 85.854 250.845,81.842 253.444,81.750 253.545 C 81.537 253.779,81.231 253.970,89.333 248.801 C 98.924 242.682,99.500 242.310,99.500 242.234 C 99.500 242.120,99.643 242.031,90.667 247.768 M94.583 253.436 C 80.558 258.157,68.933 262.040,68.750 262.067 C 68.567 262.093,67.952 262.343,67.384 262.622 C 66.816 262.901,66.310 263.088,66.259 263.037 C 66.208 262.986,66.167 263.025,66.167 263.124 C 66.167 263.267,61.944 266.096,59.859 267.349 C 58.233 268.327,53.240 271.584,53.194 271.696 C 53.164 271.772,53.052 271.833,52.946 271.833 C 52.840 271.833,52.377 272.087,51.918 272.397 C 49.427 274.080,44.651 277.151,35.242 283.123 C 35.063 283.236,34.692 283.453,34.417 283.605 C 34.142 283.757,33.279 284.294,32.500 284.799 C 31.721 285.303,30.671 285.978,30.167 286.297 C 27.662 287.886,27.087 288.309,27.236 288.458 C 27.264 288.486,31.741 289.183,37.185 290.007 C 42.629 290.832,50.721 292.065,55.167 292.747 C 59.612 293.430,63.478 294.006,63.756 294.027 C 64.286 294.067,66.805 291.947,78.833 281.336 C 81.079 279.355,88.617 272.747,95.583 266.651 C 121.599 243.889,120.554 244.815,120.208 244.844 C 120.140 244.850,108.608 248.716,94.583 253.436 M80.375 254.353 C 79.807 254.716,79.623 254.961,80.125 254.685 C 80.507 254.475,81.106 254.011,81.000 254.008 C 80.954 254.007,80.673 254.162,80.375 254.353 M237.822 272.224 C 238.411 272.935,238.972 273.566,239.069 273.626 C 239.167 273.687,238.766 273.154,238.178 272.443 C 237.589 271.732,237.028 271.101,236.931 271.040 C 236.833 270.980,237.234 271.512,237.822 272.224 M239.449 274.208 C 239.637 274.415,243.933 279.608,248.996 285.750 C 254.059 291.892,258.396 297.104,258.633 297.333 C 258.870 297.563,258.724 297.337,258.310 296.833 C 250.630 287.486,239.294 273.833,239.214 273.833 C 239.156 273.833,239.262 274.002,239.449 274.208 M258.190 275.449 C 258.563 276.256,260.071 279.504,261.543 282.667 C 265.221 290.573,280.166 322.859,280.289 323.167 C 280.360 323.343,280.271 323.320,279.987 323.087 C 279.717 322.866,279.756 322.949,280.105 323.337 C 280.392 323.656,280.816 324.217,281.048 324.583 C 281.279 324.950,281.773 325.587,282.146 326.000 C 282.519 326.412,282.826 326.804,282.829 326.869 C 282.844 327.246,284.458 327.580,289.500 328.249 C 290.462 328.376,291.400 328.514,291.583 328.555 C 291.767 328.596,292.292 328.681,292.750 328.743 C 293.208 328.806,293.846 328.893,294.167 328.938 C 294.487 328.983,295.012 329.049,295.333 329.085 C 296.870 329.258,299.102 329.585,306.617 330.738 C 311.090 331.425,316.775 332.292,319.250 332.665 C 321.725 333.039,326.913 333.829,330.778 334.422 C 338.094 335.544,338.564 335.600,338.472 335.345 C 338.391 335.119,335.923 332.152,334.094 330.083 C 333.382 329.278,328.525 323.395,328.039 322.750 C 327.424 321.932,321.113 314.287,320.651 313.799 L 320.052 313.167 310.681 313.167 L 301.310 313.167 298.874 310.958 C 297.534 309.744,292.459 305.194,287.594 300.847 C 282.730 296.500,274.212 288.878,268.667 283.909 C 263.121 278.940,258.342 274.673,258.048 274.427 L 257.513 273.981 258.190 275.449 M261.333 300.667 C 261.717 301.125,262.069 301.500,262.114 301.500 C 262.160 301.500,261.884 301.125,261.500 300.667 C 261.116 300.208,260.765 299.833,260.719 299.833 C 260.673 299.833,260.950 300.208,261.333 300.667 M264.500 304.500 C 264.884 304.958,265.235 305.333,265.281 305.333 C 265.327 305.333,265.050 304.958,264.667 304.500 C 264.283 304.042,263.931 303.667,263.886 303.667 C 263.840 303.667,264.116 304.042,264.500 304.500 M266.865 307.375 C 267.272 307.856,269.909 311.044,272.726 314.458 C 275.543 317.873,277.895 320.667,277.953 320.667 C 278.011 320.667,277.906 320.498,277.721 320.292 C 277.535 320.085,274.894 316.898,271.850 313.208 C 268.807 309.519,266.274 306.500,266.222 306.500 C 266.169 306.500,266.459 306.894,266.865 307.375 " stroke="none" fill="#043b94" fill-rule="evenodd"></path><path id="path2" d="M102.333 32.414 C 102.333 32.508,106.662 41.621,108.707 45.833 C 110.258 49.027,118.073 65.532,118.097 65.667 C 118.114 65.758,118.560 66.724,119.712 69.167 C 120.123 70.037,120.777 71.425,121.165 72.250 C 125.761 82.023,126.451 83.393,126.998 83.833 C 127.055 83.879,129.645 87.029,132.753 90.833 C 135.861 94.638,140.136 99.850,142.253 102.417 C 144.370 104.983,150.401 112.333,155.654 118.750 C 166.282 131.732,165.681 131.016,165.573 130.569 C 165.335 129.588,160.480 108.602,154.489 82.667 C 150.731 66.396,147.587 52.833,147.504 52.527 C 147.379 52.071,147.395 51.989,147.593 52.069 C 148.331 52.368,148.328 52.314,147.583 51.874 C 146.816 51.420,141.373 49.000,141.119 49.000 C 141.059 49.000,140.463 48.734,139.796 48.410 C 139.129 48.085,138.546 47.814,138.500 47.806 C 138.454 47.799,138.229 47.715,138.000 47.619 C 137.771 47.523,137.546 47.432,137.500 47.416 C 137.127 47.289,134.978 46.362,124.250 41.700 C 120.033 39.867,116.096 38.143,115.500 37.868 C 114.904 37.593,113.629 37.030,112.667 36.616 C 111.704 36.203,109.093 35.070,106.863 34.099 C 103.171 32.490,102.333 32.179,102.333 32.414 M149.648 52.919 C 150.325 53.244,150.908 53.481,150.943 53.445 C 150.979 53.410,150.538 53.175,149.963 52.923 C 148.414 52.245,148.240 52.243,149.648 52.919 M151.500 53.750 C 151.729 53.881,151.992 53.988,152.083 53.988 C 152.175 53.988,152.063 53.881,151.833 53.750 C 151.604 53.619,151.342 53.512,151.250 53.512 C 151.158 53.512,151.271 53.619,151.500 53.750 M153.083 54.427 L 153.917 54.827 155.819 58.997 C 156.865 61.291,157.747 63.142,157.780 63.109 C 157.812 63.077,156.987 61.183,155.946 58.900 C 153.977 54.581,153.554 53.996,152.417 54.024 C 152.325 54.026,152.625 54.207,153.083 54.427 M157.848 63.417 C 157.848 63.508,158.029 63.921,158.250 64.333 C 158.471 64.746,158.652 65.008,158.652 64.917 C 158.652 64.825,158.471 64.412,158.250 64.000 C 158.029 63.587,157.848 63.325,157.848 63.417 M158.682 65.250 C 158.682 65.342,158.862 65.754,159.083 66.167 C 159.304 66.579,159.485 66.842,159.485 66.750 C 159.485 66.658,159.304 66.246,159.083 65.833 C 158.862 65.421,158.682 65.158,158.682 65.250 M159.681 67.417 C 159.681 67.508,159.824 67.846,160.000 68.167 C 160.176 68.487,160.319 68.675,160.319 68.583 C 160.319 68.492,160.176 68.154,160.000 67.833 C 159.824 67.512,159.681 67.325,159.681 67.417 M160.512 69.250 C 160.512 69.342,160.619 69.604,160.750 69.833 C 160.881 70.063,160.988 70.175,160.988 70.083 C 160.988 69.992,160.881 69.729,160.750 69.500 C 160.619 69.271,160.512 69.158,160.512 69.250 M165.012 79.083 C 165.012 79.175,165.119 79.438,165.250 79.667 C 165.381 79.896,165.488 80.008,165.488 79.917 C 165.488 79.825,165.381 79.563,165.250 79.333 C 165.119 79.104,165.012 78.992,165.012 79.083 M165.845 80.917 C 165.845 81.008,165.952 81.271,166.083 81.500 C 166.214 81.729,166.322 81.842,166.322 81.750 C 166.322 81.658,166.214 81.396,166.083 81.167 C 165.952 80.938,165.845 80.825,165.845 80.917 M166.845 83.083 C 166.845 83.175,166.952 83.438,167.083 83.667 C 167.214 83.896,167.322 84.008,167.322 83.917 C 167.322 83.825,167.214 83.563,167.083 83.333 C 166.952 83.104,166.845 82.992,166.845 83.083 M167.678 84.917 C 167.678 85.008,167.786 85.271,167.917 85.500 C 168.048 85.729,168.155 85.842,168.155 85.750 C 168.155 85.658,168.048 85.396,167.917 85.167 C 167.786 84.938,167.678 84.825,167.678 84.917 M168.514 86.750 C 168.514 86.842,168.658 87.179,168.833 87.500 C 169.009 87.821,169.153 88.008,169.153 87.917 C 169.153 87.825,169.009 87.487,168.833 87.167 C 168.658 86.846,168.514 86.658,168.514 86.750 M169.347 88.583 C 169.347 88.675,169.491 89.013,169.667 89.333 C 169.842 89.654,169.986 89.842,169.986 89.750 C 169.986 89.658,169.842 89.321,169.667 89.000 C 169.491 88.679,169.347 88.492,169.347 88.583 M170.182 90.417 C 170.182 90.508,170.362 90.921,170.583 91.333 C 170.804 91.746,170.985 92.008,170.985 91.917 C 170.985 91.825,170.804 91.412,170.583 91.000 C 170.362 90.587,170.182 90.325,170.182 90.417 M171.037 92.333 C 171.241 92.894,180.728 113.627,181.028 114.167 C 181.649 115.283,181.181 114.210,178.117 107.500 C 172.071 94.257,171.151 92.262,171.049 92.173 C 170.993 92.124,170.988 92.196,171.037 92.333 M181.348 114.917 C 181.348 115.008,181.529 115.421,181.750 115.833 C 181.971 116.246,182.152 116.508,182.152 116.417 C 182.152 116.325,181.971 115.912,181.750 115.500 C 181.529 115.087,181.348 114.825,181.348 114.917 M182.181 116.750 C 182.181 116.842,182.324 117.179,182.500 117.500 C 182.676 117.821,182.819 118.008,182.819 117.917 C 182.819 117.825,182.676 117.487,182.500 117.167 C 182.324 116.846,182.181 116.658,182.181 116.750 M183.014 118.583 C 183.014 118.675,183.158 119.013,183.333 119.333 C 183.509 119.654,183.653 119.842,183.653 119.750 C 183.653 119.658,183.509 119.321,183.333 119.000 C 183.158 118.679,183.014 118.492,183.014 118.583 M184.012 120.750 C 184.012 120.842,184.119 121.104,184.250 121.333 C 184.381 121.563,184.488 121.675,184.488 121.583 C 184.488 121.492,184.381 121.229,184.250 121.000 C 184.119 120.771,184.012 120.658,184.012 120.750 M184.845 122.583 C 184.845 122.675,184.952 122.938,185.083 123.167 C 185.214 123.396,185.322 123.508,185.322 123.417 C 185.322 123.325,185.214 123.063,185.083 122.833 C 184.952 122.604,184.845 122.492,184.845 122.583 M185.678 124.417 C 185.678 124.508,185.786 124.771,185.917 125.000 C 186.048 125.229,186.155 125.342,186.155 125.250 C 186.155 125.158,186.048 124.896,185.917 124.667 C 185.786 124.438,185.678 124.325,185.678 124.417 M186.678 126.583 C 186.678 126.675,186.786 126.938,186.917 127.167 C 187.048 127.396,187.155 127.508,187.155 127.417 C 187.155 127.325,187.048 127.063,186.917 126.833 C 186.786 126.604,186.678 126.492,186.678 126.583 M189.345 132.417 C 189.345 132.508,189.452 132.771,189.583 133.000 C 189.714 133.229,189.822 133.342,189.822 133.250 C 189.822 133.158,189.714 132.896,189.583 132.667 C 189.452 132.438,189.345 132.325,189.345 132.417 M190.178 134.250 C 190.178 134.342,190.286 134.604,190.417 134.833 C 190.548 135.063,190.655 135.175,190.655 135.083 C 190.655 134.992,190.548 134.729,190.417 134.500 C 190.286 134.271,190.178 134.158,190.178 134.250 M337.500 135.918 C 336.629 136.221,333.261 137.376,330.014 138.484 C 326.768 139.593,323.880 140.637,323.598 140.805 C 323.315 140.973,318.133 144.261,312.083 148.112 C 306.033 151.963,297.108 157.627,292.250 160.699 C 281.445 167.531,270.796 174.318,270.620 174.486 C 270.548 174.555,270.698 174.584,270.953 174.551 C 271.208 174.518,274.154 174.197,277.500 173.837 C 280.846 173.477,294.196 172.012,307.167 170.582 C 320.137 169.152,334.500 167.576,339.083 167.080 C 343.667 166.585,347.683 166.140,348.008 166.093 C 348.547 166.014,348.797 166.151,350.893 167.673 L 353.186 169.339 359.552 167.328 C 363.052 166.222,366.592 165.100,367.417 164.836 C 368.242 164.571,369.104 164.319,369.333 164.276 C 369.741 164.198,370.038 164.110,370.625 163.891 C 370.785 163.832,371.010 163.757,371.125 163.725 C 371.240 163.693,371.427 163.639,371.542 163.605 C 371.656 163.570,371.993 163.486,372.289 163.418 C 372.596 163.347,372.782 163.219,372.722 163.121 C 372.661 163.022,372.696 162.999,372.804 163.066 C 372.909 163.130,373.689 162.958,374.539 162.683 C 377.620 161.685,387.621 158.527,389.125 158.077 C 391.136 157.475,391.120 157.447,387.954 156.095 C 384.246 154.510,375.953 150.902,374.833 150.386 C 374.329 150.154,373.654 149.852,373.333 149.716 C 373.012 149.581,372.450 149.333,372.083 149.165 C 371.476 148.888,369.262 147.929,364.500 145.882 C 363.537 145.469,362.375 144.961,361.917 144.753 C 359.618 143.714,356.226 142.288,356.042 142.283 C 355.927 142.280,355.833 142.215,355.833 142.139 C 355.833 142.063,355.752 142.000,355.653 142.000 C 355.444 142.000,353.229 141.128,352.250 140.661 C 351.883 140.486,350.008 139.657,348.083 138.820 C 338.871 134.813,339.880 135.090,337.500 135.918 M191.178 136.417 C 191.178 136.508,191.286 136.771,191.417 137.000 C 191.548 137.229,191.655 137.342,191.655 137.250 C 191.655 137.158,191.548 136.896,191.417 136.667 C 191.286 136.438,191.178 136.325,191.178 136.417 M192.012 138.250 C 192.012 138.342,192.119 138.604,192.250 138.833 C 192.381 139.063,192.488 139.175,192.488 139.083 C 192.488 138.992,192.381 138.729,192.250 138.500 C 192.119 138.271,192.012 138.158,192.012 138.250 M192.845 140.083 C 192.845 140.175,192.952 140.438,193.083 140.667 C 193.214 140.896,193.322 141.008,193.322 140.917 C 193.322 140.825,193.214 140.563,193.083 140.333 C 192.952 140.104,192.845 139.992,192.845 140.083 M193.682 141.917 C 193.682 142.008,193.862 142.421,194.083 142.833 C 194.304 143.246,194.485 143.508,194.485 143.417 C 194.485 143.325,194.304 142.912,194.083 142.500 C 193.862 142.087,193.682 141.825,193.682 141.917 M194.532 143.785 C 194.655 144.267,206.594 170.329,206.693 170.331 C 206.754 170.332,206.622 169.958,206.401 169.499 C 206.179 169.039,205.296 167.108,204.438 165.207 C 199.143 153.474,194.371 143.154,194.532 143.785 M209.240 168.042 L 208.750 168.583 209.292 168.094 C 209.797 167.638,209.910 167.500,209.781 167.500 C 209.752 167.500,209.509 167.744,209.240 168.042 M351.833 169.583 C 351.512 169.707,351.363 169.808,351.500 169.808 C 351.637 169.808,352.012 169.707,352.333 169.583 C 352.654 169.460,352.804 169.359,352.667 169.359 C 352.529 169.359,352.154 169.460,351.833 169.583 M348.667 170.583 C 348.346 170.707,348.196 170.808,348.333 170.808 C 348.471 170.808,348.846 170.707,349.167 170.583 C 349.488 170.460,349.637 170.359,349.500 170.359 C 349.363 170.359,348.988 170.460,348.667 170.583 M345.500 171.583 C 344.904 171.798,344.496 171.980,344.593 171.987 C 344.689 171.994,345.289 171.818,345.926 171.596 C 346.562 171.373,346.971 171.192,346.833 171.192 C 346.696 171.192,346.096 171.368,345.500 171.583 M340.167 173.239 C 338.104 173.902,330.999 176.159,324.378 178.253 C 317.757 180.348,312.368 182.090,312.402 182.124 C 312.482 182.205,344.157 172.224,344.319 172.067 C 344.517 171.876,343.579 172.141,340.167 173.239 M310.667 182.583 C 310.346 182.707,310.196 182.808,310.333 182.808 C 310.471 182.808,310.846 182.707,311.167 182.583 C 311.487 182.460,311.637 182.359,311.500 182.359 C 311.362 182.359,310.987 182.460,310.667 182.583 M307.250 183.667 C 307.040 183.757,307.009 183.810,307.167 183.810 C 307.304 183.810,307.567 183.745,307.750 183.667 C 307.960 183.576,307.991 183.523,307.833 183.523 C 307.696 183.523,307.433 183.588,307.250 183.667 M304.083 184.667 C 303.873 184.757,303.842 184.810,304.000 184.810 C 304.137 184.810,304.400 184.745,304.583 184.667 C 304.793 184.576,304.824 184.523,304.667 184.523 C 304.529 184.523,304.267 184.588,304.083 184.667 M164.379 192.087 C 164.665 192.402,164.657 192.419,164.129 192.624 C 163.584 192.836,163.584 192.836,164.083 192.740 C 164.799 192.601,164.894 192.436,164.462 192.077 C 164.088 191.765,164.087 191.765,164.379 192.087 M277.000 193.250 C 276.679 193.374,276.529 193.475,276.667 193.475 C 276.804 193.475,277.179 193.374,277.500 193.250 C 277.821 193.126,277.971 193.025,277.833 193.025 C 277.696 193.025,277.321 193.126,277.000 193.250 M160.000 193.917 C 159.679 194.040,159.529 194.141,159.667 194.141 C 159.804 194.141,160.179 194.040,160.500 193.917 C 160.821 193.793,160.971 193.692,160.833 193.692 C 160.696 193.692,160.321 193.793,160.000 193.917 M273.583 194.333 C 273.125 194.502,272.862 194.641,273.000 194.641 C 273.137 194.641,273.625 194.502,274.083 194.333 C 274.542 194.164,274.804 194.026,274.667 194.026 C 274.529 194.026,274.042 194.164,273.583 194.333 M153.667 195.907 C 151.329 196.661,144.187 198.954,137.795 201.003 C 131.403 203.052,126.202 204.758,126.237 204.793 C 126.302 204.857,158.189 194.694,158.319 194.567 C 158.515 194.377,157.547 194.656,153.667 195.907 M270.667 195.250 C 270.071 195.465,269.662 195.646,269.759 195.654 C 269.856 195.661,270.456 195.485,271.093 195.262 C 271.729 195.040,272.137 194.858,272.000 194.859 C 271.862 194.859,271.262 195.035,270.667 195.250 M260.333 198.485 C 255.521 200.017,248.417 202.275,244.547 203.502 C 240.678 204.730,237.540 205.763,237.575 205.798 C 237.635 205.857,268.249 196.221,269.167 195.854 C 270.701 195.241,267.936 196.064,260.333 198.485 M124.000 205.417 C 123.404 205.632,122.996 205.813,123.093 205.820 C 123.189 205.827,123.789 205.651,124.426 205.429 C 125.062 205.207,125.471 205.025,125.333 205.025 C 125.196 205.026,124.596 205.202,124.000 205.417 M119.583 206.833 C 119.373 206.924,119.342 206.977,119.500 206.977 C 119.638 206.977,119.900 206.912,120.083 206.833 C 120.293 206.743,120.324 206.690,120.167 206.690 C 120.029 206.690,119.767 206.755,119.583 206.833 M115.417 208.167 C 115.207 208.257,115.176 208.310,115.333 208.310 C 115.471 208.310,115.733 208.245,115.917 208.167 C 116.127 208.076,116.158 208.023,116.000 208.023 C 115.862 208.023,115.600 208.088,115.417 208.167 M241.833 210.385 C 241.833 210.414,242.077 210.658,242.375 210.927 L 242.917 211.417 242.427 210.875 C 241.971 210.370,241.833 210.257,241.833 210.385 M89.167 216.583 C 88.846 216.707,88.696 216.808,88.833 216.808 C 88.971 216.808,89.346 216.707,89.667 216.583 C 89.987 216.460,90.138 216.359,90.000 216.359 C 89.862 216.359,89.487 216.460,89.167 216.583 M85.000 217.917 C 84.404 218.132,83.996 218.313,84.093 218.320 C 84.189 218.327,84.789 218.151,85.426 217.929 C 86.062 217.707,86.471 217.525,86.333 217.525 C 86.196 217.526,85.596 217.702,85.000 217.917 M74.000 221.402 C 69.096 222.981,62.665 225.048,59.708 225.997 C 56.752 226.946,54.364 227.753,54.402 227.791 C 54.439 227.828,56.221 227.297,58.360 226.610 C 60.500 225.923,66.975 223.846,72.750 221.995 C 78.525 220.144,83.281 218.600,83.319 218.564 C 83.544 218.356,82.051 218.811,74.000 221.402 M120.083 225.188 C 114.682 225.792,100.849 227.312,65.417 231.195 L 51.417 232.729 49.625 231.437 C 48.640 230.726,47.833 230.069,47.833 229.978 C 47.833 229.772,48.725 229.506,38.476 232.771 C 33.743 234.278,29.711 235.543,29.517 235.580 C 29.324 235.617,29.086 235.697,28.989 235.757 C 28.892 235.817,28.578 235.903,28.291 235.948 C 28.004 235.993,27.390 236.180,26.926 236.364 C 26.463 236.548,25.951 236.725,25.790 236.757 C 25.497 236.815,20.131 238.514,17.917 239.250 C 17.275 239.463,15.644 239.990,14.292 240.422 C 12.940 240.854,11.835 241.292,11.837 241.395 C 11.840 241.499,14.521 242.741,17.796 244.156 C 21.071 245.571,24.387 247.019,25.167 247.374 C 25.946 247.729,26.733 248.082,26.917 248.158 C 27.100 248.235,27.760 248.530,28.382 248.815 C 29.005 249.100,29.609 249.333,29.724 249.333 C 29.839 249.333,30.005 249.401,30.092 249.484 C 30.179 249.567,31.563 250.197,33.167 250.885 C 34.771 251.573,37.321 252.674,38.833 253.332 C 40.346 253.990,42.371 254.865,43.333 255.276 C 44.296 255.687,45.496 256.214,46.000 256.448 C 46.504 256.682,47.179 256.969,47.500 257.085 C 47.821 257.202,48.665 257.568,49.376 257.899 C 50.087 258.229,50.728 258.500,50.801 258.500 C 50.874 258.500,53.778 259.739,57.254 261.253 L 63.574 264.006 65.328 263.397 C 67.659 262.590,66.769 263.114,77.369 256.304 C 82.528 252.989,92.412 246.662,99.333 242.245 C 106.254 237.828,114.054 232.843,116.667 231.166 C 119.279 229.490,122.542 227.404,123.917 226.532 C 125.292 225.660,126.526 224.846,126.661 224.723 C 126.996 224.416,126.939 224.420,120.083 225.188 M196.046 228.917 C 200.130 237.865,206.226 250.996,206.276 250.947 C 206.308 250.914,205.854 249.844,205.267 248.569 C 204.679 247.293,202.198 241.900,199.753 236.583 C 197.308 231.267,195.234 226.842,195.144 226.750 C 195.055 226.658,195.461 227.633,196.046 228.917 M193.991 227.625 L 193.417 228.250 194.042 227.676 C 194.623 227.141,194.743 227.000,194.616 227.000 C 194.588 227.000,194.307 227.281,193.991 227.625 M52.417 228.333 C 51.683 228.594,51.162 228.813,51.258 228.820 C 51.353 228.827,52.066 228.614,52.841 228.346 C 53.616 228.078,54.137 227.859,54.000 227.859 C 53.862 227.859,53.150 228.073,52.417 228.333 M192.324 229.125 L 191.750 229.750 192.375 229.176 C 192.719 228.860,193.000 228.578,193.000 228.551 C 193.000 228.423,192.859 228.543,192.324 229.125 M49.000 229.417 C 48.679 229.540,48.529 229.641,48.667 229.641 C 48.804 229.641,49.179 229.540,49.500 229.417 C 49.821 229.293,49.971 229.192,49.833 229.192 C 49.696 229.192,49.321 229.293,49.000 229.417 M190.906 230.375 L 190.417 230.917 190.958 230.427 C 191.463 229.971,191.577 229.833,191.448 229.833 C 191.419 229.833,191.175 230.077,190.906 230.375 M206.348 251.250 C 206.348 251.342,206.529 251.754,206.750 252.167 C 206.971 252.579,207.152 252.842,207.152 252.750 C 207.152 252.658,206.971 252.246,206.750 251.833 C 206.529 251.421,206.348 251.158,206.348 251.250 M207.514 253.750 C 207.514 253.842,207.658 254.179,207.833 254.500 C 208.009 254.821,208.153 255.008,208.153 254.917 C 208.153 254.825,208.009 254.487,207.833 254.167 C 207.658 253.846,207.514 253.658,207.514 253.750 M212.345 264.250 C 212.345 264.342,212.452 264.604,212.583 264.833 C 212.714 265.063,212.822 265.175,212.822 265.083 C 212.822 264.992,212.714 264.729,212.583 264.500 C 212.452 264.271,212.345 264.158,212.345 264.250 M213.347 266.417 C 213.347 266.508,213.491 266.846,213.667 267.167 C 213.842 267.487,213.986 267.675,213.986 267.583 C 213.986 267.492,213.842 267.154,213.667 266.833 C 213.491 266.512,213.347 266.325,213.347 266.417 M214.347 268.583 C 214.347 268.675,214.491 269.012,214.667 269.333 C 214.842 269.654,214.986 269.842,214.986 269.750 C 214.986 269.658,214.842 269.321,214.667 269.000 C 214.491 268.679,214.347 268.492,214.347 268.583 M235.669 270.102 C 235.748 270.458,237.577 278.662,239.733 288.333 C 249.063 330.177,252.473 345.582,252.421 345.635 C 252.327 345.729,249.523 344.479,249.369 344.275 C 249.290 344.169,247.662 340.689,245.752 336.541 C 243.843 332.392,242.254 329.023,242.223 329.055 C 242.192 329.086,243.764 332.582,245.717 336.823 L 249.267 344.534 250.834 345.202 C 251.696 345.569,252.554 345.969,252.742 346.091 C 252.930 346.213,254.658 346.994,256.583 347.826 C 258.508 348.659,260.233 349.411,260.417 349.497 C 262.010 350.243,263.505 350.885,264.032 351.050 C 264.381 351.159,264.667 351.305,264.667 351.374 C 264.667 351.443,264.749 351.500,264.850 351.500 C 264.951 351.500,265.307 351.620,265.641 351.767 C 265.976 351.914,266.400 352.091,266.583 352.161 C 266.767 352.231,267.104 352.366,267.333 352.460 C 268.403 352.900,283.869 359.601,286.083 360.584 C 287.458 361.195,289.108 361.918,289.750 362.192 C 290.392 362.466,291.142 362.791,291.417 362.916 C 295.283 364.666,300.425 366.808,300.523 366.710 C 300.629 366.602,299.849 364.861,295.761 356.083 C 295.505 355.533,294.961 354.379,294.551 353.518 C 294.142 352.656,292.380 348.869,290.635 345.101 C 288.890 341.333,287.167 337.624,286.805 336.859 C 286.444 336.094,285.975 335.081,285.763 334.609 C 285.551 334.136,284.647 332.218,283.753 330.346 C 282.860 328.474,282.115 326.852,282.099 326.741 C 281.986 325.971,280.667 324.018,278.568 321.510 C 277.242 319.926,273.367 315.245,269.957 311.107 C 266.547 306.969,261.240 300.546,258.164 296.833 C 255.087 293.121,248.831 285.546,244.262 280.000 C 234.457 268.100,235.488 269.289,235.669 270.102 M215.182 270.417 C 215.182 270.508,215.362 270.921,215.583 271.333 C 215.804 271.746,215.985 272.008,215.985 271.917 C 215.985 271.825,215.804 271.412,215.583 271.000 C 215.362 270.587,215.182 270.325,215.182 270.417 M216.182 272.583 C 216.182 272.675,216.362 273.087,216.583 273.500 C 216.804 273.912,216.985 274.175,216.985 274.083 C 216.985 273.992,216.804 273.579,216.583 273.167 C 216.362 272.754,216.182 272.492,216.182 272.583 M217.204 274.833 C 217.682 276.146,227.861 297.994,227.610 297.167 C 227.546 296.955,222.823 286.666,218.507 277.337 C 217.472 275.100,216.906 274.012,217.204 274.833 M227.682 297.583 C 227.682 297.675,227.862 298.087,228.083 298.500 C 228.304 298.912,228.485 299.175,228.485 299.083 C 228.485 298.992,228.304 298.579,228.083 298.167 C 227.862 297.754,227.682 297.492,227.682 297.583 M228.682 299.750 C 228.682 299.842,228.862 300.254,229.083 300.667 C 229.304 301.079,229.485 301.342,229.485 301.250 C 229.485 301.158,229.304 300.746,229.083 300.333 C 228.862 299.921,228.682 299.658,228.682 299.750 M229.682 301.917 C 229.682 302.008,229.862 302.421,230.083 302.833 C 230.304 303.246,230.485 303.508,230.485 303.417 C 230.485 303.325,230.304 302.912,230.083 302.500 C 229.862 302.087,229.682 301.825,229.682 301.917 M230.514 303.750 C 230.514 303.842,230.658 304.179,230.833 304.500 C 231.009 304.821,231.153 305.008,231.153 304.917 C 231.153 304.825,231.009 304.487,230.833 304.167 C 230.658 303.846,230.514 303.658,230.514 303.750 M231.514 305.917 C 231.514 306.008,231.658 306.346,231.833 306.667 C 232.009 306.987,232.153 307.175,232.153 307.083 C 232.153 306.992,232.009 306.654,231.833 306.333 C 231.658 306.012,231.514 305.825,231.514 305.917 M235.678 314.917 C 235.678 315.008,235.786 315.271,235.917 315.500 C 236.048 315.729,236.155 315.842,236.155 315.750 C 236.155 315.658,236.048 315.396,235.917 315.167 C 235.786 314.938,235.678 314.825,235.678 314.917 M236.678 317.083 C 236.678 317.175,236.786 317.438,236.917 317.667 C 237.048 317.896,237.155 318.008,237.155 317.917 C 237.155 317.825,237.048 317.563,236.917 317.333 C 236.786 317.104,236.678 316.992,236.678 317.083 M237.514 318.917 C 237.514 319.008,237.658 319.346,237.833 319.667 C 238.009 319.987,238.153 320.175,238.153 320.083 C 238.153 319.992,238.009 319.654,237.833 319.333 C 237.658 319.012,237.514 318.825,237.514 318.917 M238.514 321.083 C 238.514 321.175,238.658 321.512,238.833 321.833 C 239.009 322.154,239.153 322.342,239.153 322.250 C 239.153 322.158,239.009 321.821,238.833 321.500 C 238.658 321.179,238.514 320.992,238.514 321.083 M239.515 323.250 C 239.515 323.342,239.696 323.754,239.917 324.167 C 240.138 324.579,240.318 324.842,240.318 324.750 C 240.318 324.658,240.138 324.246,239.917 323.833 C 239.696 323.421,239.515 323.158,239.515 323.250 M240.348 325.083 C 240.348 325.175,240.529 325.587,240.750 326.000 C 240.971 326.412,241.152 326.675,241.152 326.583 C 241.152 326.492,240.971 326.079,240.750 325.667 C 240.529 325.254,240.348 324.992,240.348 325.083 M241.182 326.917 C 241.182 327.008,241.400 327.496,241.667 328.000 C 241.933 328.504,242.151 328.842,242.151 328.750 C 242.151 328.658,241.933 328.171,241.667 327.667 C 241.400 327.162,241.182 326.825,241.182 326.917 " stroke="none" fill="#046cbc" fill-rule="evenodd"></path><path id="path3" d="M80.694 85.958 C 80.927 86.210,83.320 89.042,86.011 92.250 C 88.703 95.458,92.373 99.808,94.168 101.917 C 95.963 104.025,99.675 108.412,102.417 111.667 C 105.159 114.921,112.284 123.358,118.249 130.417 C 163.782 184.290,169.083 190.597,169.083 190.887 C 169.083 190.986,168.196 191.345,167.112 191.685 C 166.028 192.025,165.107 192.337,165.066 192.378 C 165.025 192.419,166.137 193.448,167.538 194.664 C 168.938 195.880,170.121 196.971,170.167 197.088 C 170.212 197.205,170.720 197.719,171.294 198.230 C 171.869 198.742,172.342 199.204,172.346 199.258 C 172.355 199.392,170.273 201.227,150.344 218.649 C 148.196 220.527,146.246 222.266,146.011 222.513 C 145.776 222.760,140.108 227.743,133.417 233.586 C 126.725 239.429,121.063 244.415,120.833 244.666 C 120.604 244.918,108.642 255.424,94.250 268.015 C 79.858 280.605,67.314 291.583,66.373 292.411 C 64.694 293.889,64.671 293.919,65.123 294.044 C 65.585 294.171,81.869 296.634,82.684 296.700 C 83.125 296.736,86.666 294.457,104.583 282.604 C 108.525 279.996,114.807 275.850,118.543 273.390 C 122.279 270.930,130.342 265.616,136.460 261.582 C 142.578 257.547,150.827 252.110,154.792 249.498 C 158.757 246.887,167.912 240.845,175.137 236.071 C 182.361 231.298,188.380 227.351,188.511 227.301 C 188.643 227.250,189.855 226.487,191.205 225.604 C 194.132 223.692,193.721 223.735,194.420 225.268 L 194.998 226.536 196.142 225.522 C 196.772 224.964,197.381 224.393,197.497 224.254 C 197.613 224.114,197.827 224.000,197.973 224.000 C 198.119 224.000,198.591 223.652,199.023 223.228 L 199.807 222.455 200.298 222.853 C 200.950 223.380,209.807 231.251,214.324 235.318 C 221.828 242.073,230.463 249.782,231.421 250.580 C 232.446 251.435,235.946 254.555,248.897 266.156 C 253.011 269.842,256.836 273.238,257.397 273.703 C 257.958 274.169,260.817 276.703,263.750 279.335 C 266.683 281.967,276.389 290.656,285.317 298.644 L 301.551 313.167 310.609 313.167 C 315.591 313.167,319.667 313.123,319.667 313.069 C 319.667 312.964,316.123 308.676,301.835 291.491 C 293.452 281.409,285.684 272.059,263.485 245.333 C 258.879 239.787,252.804 232.475,249.986 229.083 C 234.812 210.820,232.254 207.675,232.438 207.513 C 232.518 207.443,233.502 207.098,234.625 206.747 C 235.748 206.395,236.664 206.065,236.662 206.012 C 236.659 205.960,235.201 204.642,233.422 203.083 C 231.643 201.525,230.183 200.169,230.177 200.070 C 230.171 199.971,229.609 199.408,228.928 198.820 C 228.247 198.231,227.703 197.702,227.720 197.642 C 227.759 197.503,236.235 190.070,242.417 184.753 C 249.793 178.411,251.214 177.168,251.667 176.671 C 251.896 176.419,256.958 171.965,262.917 166.773 C 268.875 161.581,274.917 156.302,276.344 155.042 C 277.770 153.781,280.543 151.362,282.504 149.667 C 284.466 147.971,290.203 142.983,295.254 138.583 C 300.305 134.183,311.169 124.733,319.398 117.583 C 333.611 105.232,334.335 104.577,333.887 104.457 C 333.332 104.308,318.163 102.009,317.423 101.962 C 316.903 101.928,313.772 103.949,291.250 118.855 C 287.033 121.646,280.285 126.101,276.254 128.756 C 272.222 131.411,264.985 136.182,260.170 139.359 C 255.356 142.536,248.247 147.223,244.372 149.776 C 240.498 152.328,231.498 158.270,224.372 162.979 C 217.247 167.689,211.304 171.583,211.167 171.633 C 211.029 171.684,210.380 172.084,209.723 172.524 C 208.132 173.590,208.236 173.616,207.446 171.946 L 206.750 170.476 204.256 172.738 C 202.885 173.982,201.698 175.000,201.620 175.000 C 201.541 175.000,201.104 175.314,200.650 175.697 L 199.823 176.395 198.953 175.557 C 198.475 175.097,197.033 173.786,195.750 172.645 C 194.467 171.504,192.029 169.336,190.333 167.829 C 187.486 165.297,181.693 160.052,181.500 159.830 C 181.308 159.609,171.171 150.520,170.350 149.833 C 169.858 149.421,167.114 146.983,164.253 144.417 C 161.392 141.850,156.771 137.705,153.984 135.206 C 145.995 128.042,119.403 104.125,108.591 94.380 L 98.750 85.509 89.510 85.505 L 80.271 85.500 80.694 85.958 M139.991 276.458 L 139.417 277.083 140.042 276.509 C 140.623 275.974,140.743 275.833,140.616 275.833 C 140.588 275.833,140.307 276.115,139.991 276.458 M327.833 286.719 C 327.833 286.748,328.077 286.991,328.375 287.260 L 328.917 287.750 328.427 287.208 C 327.971 286.703,327.833 286.590,327.833 286.719 M116.658 297.458 L 116.083 298.083 116.708 297.509 C 117.290 296.974,117.410 296.833,117.283 296.833 C 117.255 296.833,116.974 297.115,116.658 297.458 " stroke="none" fill="#040d2b" fill-rule="evenodd"></path><path id="path4" d="M127.167 84.375 C 127.167 84.473,133.654 98.210,144.733 121.568 C 146.990 126.326,148.807 130.249,148.770 130.285 C 148.734 130.321,148.265 129.950,147.727 129.459 C 145.373 127.311,141.956 124.316,142.368 124.762 C 142.615 125.030,144.214 126.487,145.919 128.000 C 149.164 130.878,154.016 135.222,163.684 143.904 C 166.856 146.753,169.856 149.421,170.349 149.833 C 171.166 150.517,181.305 159.606,181.500 159.830 C 181.693 160.052,187.486 165.297,190.333 167.829 C 192.029 169.336,194.467 171.504,195.750 172.645 C 197.033 173.786,198.475 175.097,198.953 175.557 L 199.823 176.395 200.650 175.697 C 201.104 175.314,201.545 175.000,201.629 175.000 C 201.713 175.000,201.925 174.831,202.099 174.625 L 202.417 174.250 202.038 174.571 C 201.813 174.762,201.603 174.829,201.521 174.738 C 201.445 174.653,199.144 171.846,196.406 168.500 C 193.669 165.154,188.686 159.079,185.333 155.000 C 181.979 150.921,176.718 144.508,173.641 140.750 C 170.564 136.992,167.530 133.301,166.898 132.549 C 165.007 130.296,153.487 116.302,144.083 104.835 C 126.458 83.343,127.167 84.200,127.167 84.375 M42.513 85.375 C 42.521 85.490,43.692 86.596,45.116 87.833 C 51.247 93.159,53.735 95.331,62.006 102.576 C 66.815 106.788,71.766 111.138,73.009 112.242 C 74.251 113.347,75.489 114.438,75.761 114.667 C 77.108 115.805,79.109 117.551,87.167 124.619 C 91.979 128.841,97.086 133.334,98.515 134.606 C 99.944 135.877,102.039 137.704,103.169 138.667 C 106.628 141.612,117.135 150.798,119.175 152.660 C 120.234 153.626,121.884 155.090,122.842 155.913 C 123.800 156.735,125.521 158.240,126.667 159.256 C 128.695 161.054,130.338 162.470,132.171 164.000 C 133.689 165.267,141.348 171.983,142.559 173.109 C 145.143 175.511,156.377 185.254,156.627 185.310 C 156.878 185.366,162.504 190.222,164.746 192.318 C 165.294 192.831,165.567 193.049,165.353 192.804 L 164.965 192.357 167.024 191.712 C 168.157 191.357,169.083 190.986,169.083 190.888 C 169.083 190.597,163.796 184.307,118.249 130.417 C 112.284 123.358,105.159 114.921,102.417 111.667 C 99.675 108.412,95.963 104.025,94.168 101.917 C 92.373 99.808,88.703 95.458,86.011 92.250 C 83.320 89.042,80.927 86.210,80.694 85.958 L 80.271 85.500 89.510 85.504 L 98.750 85.508 103.500 89.777 C 106.112 92.125,107.987 93.777,107.667 93.447 C 107.346 93.117,105.215 91.169,102.931 89.118 L 98.779 85.388 84.681 85.277 C 60.821 85.090,42.498 85.133,42.513 85.375 M295.397 90.296 C 292.270 93.113,289.198 95.867,288.570 96.417 C 286.970 97.818,285.447 99.199,285.250 99.428 C 285.080 99.625,258.995 123.138,257.435 124.500 C 256.963 124.912,253.549 127.987,249.849 131.333 C 246.149 134.679,242.736 137.754,242.265 138.167 C 241.793 138.579,238.787 141.279,235.584 144.167 C 232.382 147.054,228.971 150.121,228.006 150.982 C 227.040 151.842,225.128 153.567,223.756 154.815 C 222.384 156.063,220.509 157.753,219.589 158.571 C 217.890 160.083,214.929 162.780,213.417 164.193 C 212.065 165.456,211.441 166.002,211.018 166.294 C 210.799 166.445,210.499 166.766,210.352 167.006 C 210.204 167.247,209.296 168.142,208.333 168.995 C 206.680 170.460,205.642 171.437,206.433 170.783 C 206.779 170.497,206.791 170.512,207.476 172.006 C 207.957 173.056,208.232 173.481,208.376 173.396 C 208.490 173.329,209.108 172.926,209.750 172.500 C 210.392 172.073,211.029 171.684,211.167 171.633 C 211.304 171.583,217.247 167.689,224.372 162.979 C 231.498 158.270,240.498 152.328,244.372 149.776 C 248.247 147.223,255.356 142.536,260.170 139.359 C 264.985 136.182,272.222 131.411,276.254 128.756 C 280.285 126.101,287.033 121.646,291.250 118.855 C 313.772 103.949,316.903 101.928,317.423 101.962 C 318.165 102.009,333.333 104.309,333.885 104.457 C 334.334 104.578,334.090 104.813,328.341 109.812 C 325.034 112.688,322.276 115.125,322.213 115.229 C 322.150 115.332,322.920 114.699,323.924 113.822 C 325.759 112.219,331.979 106.852,338.106 101.583 C 341.272 98.861,344.595 95.978,351.169 90.250 C 352.852 88.783,354.740 87.148,355.364 86.617 C 355.989 86.085,356.500 85.542,356.500 85.409 C 356.500 85.198,352.901 85.167,328.792 85.171 L 301.083 85.176 295.397 90.296 M108.993 94.708 C 109.402 95.144,109.758 95.500,109.785 95.500 C 109.910 95.500,109.778 95.350,109.042 94.660 L 108.250 93.917 108.993 94.708 M110.660 96.208 C 111.068 96.644,111.425 97.000,111.451 97.000 C 111.577 97.000,111.444 96.850,110.708 96.160 L 109.917 95.417 110.660 96.208 M112.326 97.708 C 112.735 98.144,113.091 98.500,113.118 98.500 C 113.243 98.500,113.111 98.350,112.375 97.660 L 111.583 96.917 112.326 97.708 M113.333 98.533 C 113.333 98.641,115.904 100.983,126.750 110.751 C 130.508 114.136,133.471 116.764,133.333 116.591 C 133.196 116.419,128.958 112.567,123.917 108.030 C 118.875 103.494,114.431 99.479,114.042 99.107 C 113.652 98.735,113.333 98.476,113.333 98.533 M320.421 116.676 C 319.598 117.405,318.773 118.164,318.587 118.362 C 318.402 118.560,319.059 118.024,320.047 117.170 C 321.633 115.800,322.145 115.313,321.968 115.342 C 321.940 115.346,321.243 115.947,320.421 116.676 M134.326 117.542 C 135.017 118.278,135.167 118.410,135.167 118.285 C 135.167 118.258,134.810 117.902,134.375 117.493 L 133.583 116.750 134.326 117.542 M135.993 119.042 C 136.402 119.477,136.758 119.833,136.785 119.833 C 136.910 119.833,136.778 119.684,136.042 118.993 L 135.250 118.250 135.993 119.042 M312.917 123.197 C 310.075 125.677,303.533 131.377,298.378 135.864 C 293.224 140.350,288.954 144.110,288.889 144.219 C 288.824 144.328,289.329 143.924,290.011 143.323 C 290.692 142.721,295.300 138.711,300.250 134.413 C 316.322 120.456,318.432 118.599,318.125 118.677 C 318.102 118.683,315.758 120.717,312.917 123.197 M137.660 120.542 C 138.068 120.977,138.425 121.333,138.451 121.333 C 138.577 121.333,138.444 121.184,137.708 120.493 L 136.917 119.750 137.660 120.542 M139.326 122.042 C 139.735 122.477,140.091 122.833,140.118 122.833 C 140.243 122.833,140.111 122.684,139.375 121.993 L 138.583 121.250 139.326 122.042 M140.993 123.542 C 141.402 123.977,141.758 124.333,141.785 124.333 C 141.910 124.333,141.778 124.184,141.042 123.493 L 140.250 122.750 140.993 123.542 M298.434 149.184 C 285.060 153.670,274.094 157.316,274.065 157.287 C 274.036 157.258,277.272 154.398,281.257 150.933 C 285.242 147.467,288.554 144.548,288.617 144.445 C 288.680 144.343,287.799 145.073,286.658 146.067 C 285.517 147.061,282.783 149.431,280.583 151.333 C 278.383 153.234,275.946 155.363,275.167 156.062 C 274.387 156.761,268.875 161.581,262.917 166.773 C 256.958 171.965,251.896 176.419,251.667 176.671 C 251.214 177.168,249.793 178.411,242.417 184.753 C 236.235 190.070,227.759 197.503,227.720 197.642 C 227.703 197.702,228.247 198.231,228.928 198.820 C 229.609 199.408,230.173 199.971,230.181 200.070 C 230.189 200.169,230.920 200.877,231.806 201.642 L 233.417 203.034 231.833 201.533 C 230.963 200.707,230.287 199.996,230.333 199.952 C 230.379 199.909,231.992 198.878,233.917 197.661 C 237.907 195.139,258.185 182.247,265.392 177.650 C 268.037 175.963,273.924 172.218,278.475 169.327 C 283.026 166.436,291.175 161.253,296.583 157.810 C 301.992 154.366,310.129 149.203,314.667 146.335 C 323.527 140.736,323.129 140.994,322.903 141.013 C 322.819 141.021,311.808 144.697,298.434 149.184 M204.833 172.083 C 204.428 172.496,204.135 172.833,204.181 172.833 C 204.226 172.833,204.595 172.496,205.000 172.083 C 205.405 171.671,205.699 171.333,205.653 171.333 C 205.607 171.333,205.238 171.671,204.833 172.083 M203.167 173.583 C 202.762 173.996,202.468 174.333,202.514 174.333 C 202.560 174.333,202.928 173.996,203.333 173.583 C 203.738 173.171,204.032 172.833,203.986 172.833 C 203.940 172.833,203.572 173.171,203.167 173.583 M166.000 193.385 C 166.000 193.414,166.244 193.658,166.542 193.927 L 167.083 194.417 166.594 193.875 C 166.138 193.370,166.000 193.257,166.000 193.385 M167.667 194.917 C 167.978 195.237,168.270 195.500,168.315 195.500 C 168.361 195.500,168.144 195.237,167.833 194.917 C 167.522 194.596,167.230 194.333,167.185 194.333 C 167.139 194.333,167.356 194.596,167.667 194.917 M169.000 196.083 C 169.311 196.404,169.603 196.667,169.649 196.667 C 169.695 196.667,169.478 196.404,169.167 196.083 C 168.856 195.762,168.564 195.500,168.518 195.500 C 168.472 195.500,168.689 195.762,169.000 196.083 M169.931 196.895 C 169.991 197.051,168.079 198.360,163.884 201.035 C 148.982 210.538,129.575 222.973,127.667 224.242 C 126.521 225.005,122.696 227.462,119.167 229.703 C 115.638 231.945,108.550 236.478,103.417 239.778 C 98.283 243.077,89.021 249.002,82.833 252.944 C 69.789 261.255,68.384 262.159,68.508 262.163 C 68.558 262.165,80.214 258.266,94.410 253.499 C 108.606 248.732,120.250 244.861,120.285 244.896 C 120.321 244.932,116.788 248.083,112.434 251.899 C 108.080 255.715,104.465 258.922,104.400 259.027 C 104.241 259.285,120.306 245.246,120.833 244.667 C 121.063 244.415,126.725 239.429,133.417 233.586 C 140.108 227.743,145.776 222.760,146.011 222.513 C 146.246 222.266,148.196 220.527,150.344 218.649 C 171.526 200.132,172.365 199.390,172.303 199.219 C 172.275 199.145,171.802 198.682,171.251 198.191 C 170.701 197.701,170.196 197.157,170.130 196.983 C 170.065 196.809,169.973 196.667,169.927 196.667 C 169.881 196.667,169.883 196.769,169.931 196.895 M234.083 203.667 C 234.441 204.033,234.772 204.333,234.818 204.333 C 234.863 204.333,234.608 204.033,234.250 203.667 C 233.892 203.300,233.562 203.000,233.516 203.000 C 233.470 203.000,233.725 203.300,234.083 203.667 M235.500 204.917 C 235.811 205.237,236.103 205.500,236.149 205.500 C 236.195 205.500,235.978 205.237,235.667 204.917 C 235.356 204.596,235.064 204.333,235.018 204.333 C 234.972 204.333,235.189 204.596,235.500 204.917 M236.589 205.844 C 236.660 206.051,236.260 206.235,234.631 206.745 C 233.505 207.097,232.518 207.443,232.438 207.513 C 232.254 207.675,234.812 210.820,249.986 229.083 C 252.804 232.475,258.879 239.787,263.485 245.333 C 285.684 272.059,293.452 281.409,301.835 291.491 C 306.831 297.500,312.904 304.817,315.330 307.750 C 317.756 310.683,319.818 313.138,319.912 313.206 C 320.268 313.460,357.167 313.356,357.167 313.100 C 357.167 312.972,356.285 312.094,355.208 311.148 C 354.131 310.203,352.873 309.089,352.411 308.673 C 350.952 307.357,348.973 305.594,347.236 304.064 C 345.605 302.627,335.189 293.352,328.083 287.010 C 326.158 285.292,320.458 280.223,315.417 275.746 C 310.375 271.269,305.387 266.816,304.333 265.850 C 301.854 263.579,300.892 262.723,297.721 259.970 C 295.456 258.003,281.891 245.897,278.417 242.742 C 277.133 241.577,275.512 240.127,274.814 239.520 C 274.116 238.913,272.767 237.742,271.816 236.917 C 269.974 235.319,259.539 226.011,255.903 222.722 C 253.823 220.841,251.692 218.935,250.935 218.279 C 250.741 218.111,250.021 217.466,249.333 216.845 C 248.099 215.730,245.467 213.424,244.627 212.722 C 244.390 212.523,244.028 212.271,243.823 212.161 C 243.445 211.959,237.089 206.314,236.708 205.842 C 236.520 205.609,236.508 205.609,236.589 205.844 M198.944 223.306 L 198.150 224.111 204.200 231.439 C 217.188 247.169,225.298 256.976,230.286 262.984 C 239.340 273.889,272.984 314.549,277.984 320.629 C 280.229 323.358,280.632 323.738,280.030 322.558 C 279.850 322.205,276.027 313.967,271.534 304.250 C 262.228 284.124,257.680 274.325,257.533 274.083 C 257.376 273.826,258.323 274.639,261.570 277.550 C 263.213 279.022,264.504 280.142,264.440 280.038 C 264.310 279.827,258.811 274.887,257.256 273.583 C 256.709 273.125,252.921 269.759,248.839 266.103 C 235.677 254.315,232.436 251.427,231.421 250.580 C 230.447 249.767,223.603 243.661,214.490 235.474 C 207.490 229.185,199.937 222.500,199.832 222.500 C 199.780 222.500,199.380 222.863,198.944 223.306 M191.083 225.673 C 189.708 226.582,188.533 227.328,188.473 227.330 C 188.412 227.332,182.431 231.252,175.182 236.042 C 167.933 240.831,158.757 246.887,154.792 249.498 C 150.827 252.110,142.578 257.547,136.460 261.582 C 130.342 265.616,122.279 270.930,118.543 273.390 C 114.807 275.850,108.525 279.996,104.583 282.604 C 86.666 294.457,83.125 296.736,82.684 296.700 C 81.873 296.635,65.586 294.171,65.120 294.044 C 64.671 293.921,64.754 293.831,67.583 291.350 C 69.194 289.938,70.562 288.701,70.625 288.600 C 70.687 288.499,69.841 289.198,68.744 290.152 C 67.647 291.107,66.188 292.365,65.500 292.949 C 63.871 294.331,56.993 300.314,50.984 305.576 C 48.362 307.872,45.386 310.462,44.369 311.333 C 43.353 312.204,42.516 313.010,42.511 313.125 C 42.502 313.291,48.257 313.333,70.757 313.333 L 99.013 313.333 103.220 309.542 C 105.533 307.456,107.942 305.300,108.573 304.750 C 110.806 302.802,115.087 298.963,115.333 298.688 C 115.559 298.436,129.851 285.549,136.349 279.740 C 138.662 277.672,156.395 261.693,158.083 260.155 C 159.030 259.293,167.032 252.082,168.150 251.084 C 168.664 250.626,171.705 247.888,174.910 245.000 C 178.114 242.113,181.533 239.037,182.506 238.167 C 186.154 234.904,189.500 231.800,189.500 231.680 C 189.500 231.611,190.737 230.446,192.250 229.091 C 193.762 227.736,195.000 226.608,195.000 226.584 C 195.000 226.379,193.811 224.002,193.713 224.010 C 193.641 224.016,192.458 224.764,191.083 225.673 M196.417 225.280 C 195.683 225.976,195.346 226.337,195.667 226.083 C 196.602 225.342,198.039 223.999,197.888 224.008 C 197.812 224.012,197.150 224.585,196.417 225.280 M103.491 259.792 L 102.917 260.417 103.542 259.842 C 104.123 259.308,104.243 259.167,104.116 259.167 C 104.088 259.167,103.807 259.448,103.491 259.792 M90.583 271.015 C 83.892 276.880,78.192 281.912,77.917 282.196 C 77.642 282.480,83.135 277.709,90.125 271.592 C 101.222 261.882,103.006 260.298,102.792 260.342 C 102.769 260.347,97.275 265.150,90.583 271.015 M265.326 280.875 C 266.017 281.611,266.167 281.743,266.167 281.618 C 266.167 281.591,265.810 281.235,265.375 280.826 L 264.583 280.083 265.326 280.875 M266.333 281.708 C 266.333 281.769,270.965 285.961,276.625 291.024 C 282.285 296.088,287.573 300.824,288.375 301.550 C 289.177 302.276,289.833 302.827,289.833 302.776 C 289.833 302.725,284.865 298.243,278.792 292.817 C 272.719 287.390,267.431 282.646,267.042 282.274 C 266.652 281.902,266.333 281.647,266.333 281.708 M76.658 283.292 L 76.083 283.917 76.708 283.342 C 77.290 282.808,77.410 282.667,77.283 282.667 C 77.255 282.667,76.974 282.948,76.658 283.292 M75.324 284.458 L 74.750 285.083 75.375 284.509 C 75.957 283.974,76.077 283.833,75.949 283.833 C 75.922 283.833,75.640 284.115,75.324 284.458 M73.991 285.625 L 73.417 286.250 74.042 285.676 C 74.623 285.141,74.743 285.000,74.616 285.000 C 74.588 285.000,74.307 285.281,73.991 285.625 M72.658 286.792 L 72.083 287.417 72.708 286.842 C 73.290 286.308,73.410 286.167,73.283 286.167 C 73.255 286.167,72.974 286.448,72.658 286.792 M71.324 287.958 L 70.750 288.583 71.375 288.009 C 71.957 287.474,72.077 287.333,71.949 287.333 C 71.922 287.333,71.640 287.615,71.324 287.958 M290.000 302.881 C 290.000 302.926,290.675 303.580,291.500 304.333 C 292.325 305.087,293.000 305.665,293.000 305.619 C 293.000 305.574,292.325 304.920,291.500 304.167 C 290.675 303.413,290.000 302.835,290.000 302.881 M293.167 305.714 C 293.167 305.760,293.842 306.413,294.667 307.167 C 295.492 307.920,296.167 308.499,296.167 308.453 C 296.167 308.407,295.492 307.753,294.667 307.000 C 293.842 306.247,293.167 305.668,293.167 305.714 M296.400 308.640 C 296.578 308.927,301.344 313.212,301.410 313.144 C 301.442 313.111,300.302 312.042,298.877 310.769 C 297.452 309.496,296.337 308.538,296.400 308.640 " stroke="none" fill="#233b5d" fill-rule="evenodd"></path></g></svg>